<?xml version="1.0" standalone="no"?>
<!DOCTYPE svg PUBLIC "-//W3C//DTD SVG 20010904//EN"
 "http://www.w3.org/TR/2001/REC-SVG-20010904/DTD/svg10.dtd">
<svg version="1.0" xmlns="http://www.w3.org/2000/svg"
 width="1024.000000pt" height="1024.000000pt" viewBox="0 0 1024.000000 1024.000000"
 preserveAspectRatio="xMidYMid meet">

<g transform="translate(0.000000,1024.000000) scale(0.100000,-0.100000)"
fill="#000000" stroke="none">
<path d="M0 5120 l0 -5120 5120 0 5120 0 0 5120 0 5120 -5120 0 -5120 0 0
-5120z m5315 2774 c299 -80 520 -332 565 -643 66 -450 -295 -862 -754 -861
-166 0 -291 37 -427 125 -216 140 -343 373 -343 630 1 134 20 216 79 340 109
227 321 385 570 426 71 11 239 2 310 -17z m-1315 -3099 c0 -1305 -2 -1585 -13
-1585 -30 0 -127 35 -197 70 -184 94 -307 243 -372 450 l-23 75 0 980 c0 1108
-5 1030 82 1204 83 167 236 300 417 363 45 15 87 28 94 28 9 0 12 -324 12
-1585z m2350 1558 c231 -77 403 -259 472 -498 l23 -80 0 -980 c0 -908 -1 -985
-18 -1045 -55 -203 -188 -371 -367 -464 -57 -30 -185 -76 -211 -76 -5 0 -9
660 -9 1586 l0 1586 33 -7 c17 -4 52 -14 77 -22z m-1071 -518 c262 -55 481
-246 567 -495 136 -391 -72 -827 -463 -970 -205 -74 -400 -63 -598 34 -203
100 -344 271 -407 493 -31 110 -31 277 1 387 94 337 387 563 733 565 53 1 128
-6 167 -14z"/>
</g>
</svg>
